# Blender 3.6.0
# www.blender.org
mtllib test_shape.mtl
o Cube
v 0.425597 1.000000 -0.425597
v 1.000000 -1.000000 -1.000000
v 0.425597 1.000000 0.425597
v 1.000000 -1.000000 1.000000
v -0.425597 1.000000 -0.425597
v -1.000000 -1.000000 -1.000000
v -0.425597 1.000000 0.425597
v -1.000000 -1.000000 1.000000
v 1.000000 1.000000 1.000000
v -1.000000 1.000000 1.000000
v 1.000000 1.000000 -1.000000
v -1.000000 1.000000 -1.000000
v 0.425597 3.399664 0.425597
v -0.425597 3.399664 0.425597
v 0.425597 3.399664 -0.425597
v -0.425597 3.399664 -0.425597
v 0.425597 4.383002 0.425597
v -0.425597 4.383002 0.425597
v 0.425597 4.383002 -0.425597
v -0.425597 4.383002 -0.425597
v 1.762767 3.399664 -0.425597
v 1.762767 3.399664 0.425597
v 1.762767 4.383002 -0.425597
v 1.762767 4.383002 0.425597
v 0.425597 3.399664 1.460934
v -0.425597 3.399664 1.460934
v 0.425597 4.383002 1.460934
v -0.425597 4.383002 1.460934
v -0.425597 3.399664 -1.685015
v 0.425597 3.399664 -1.685015
v -0.425597 4.383002 -1.685015
v 0.425597 4.383002 -1.685015
v 0.425597 5.962019 0.425597
v -0.425597 5.962019 0.425597
v 0.425597 5.962019 -0.425597
v -0.425597 5.962019 -0.425597
vn -1.0000 -0.0000 -0.0000
vn -0.0000 -0.0000 1.0000
vn -0.0000 -1.0000 -0.0000
vn 1.0000 -0.0000 -0.0000
vn -0.0000 -0.0000 -1.0000
vn -0.0000 1.0000 -0.0000
vt 0.772975 0.602025
vt 0.772975 0.647975
vt 0.375000 0.750000
vt 0.625000 0.750000
vt 0.625000 1.000000
vt 0.375000 1.000000
vt 0.375000 0.000000
vt 0.625000 0.000000
vt 0.625000 0.250000
vt 0.375000 0.250000
vt 0.125000 0.500000
vt 0.375000 0.500000
vt 0.125000 0.750000
vt 0.625000 0.500000
vt 0.727025 0.647975
vt 0.875000 0.750000
vt 0.727025 0.602025
vt 0.875000 0.500000
s 0
usemtl Material
f 5/1/1 7/2/1 14/2/1 16/1/1
f 4/3/2 9/4/2 10/5/2 8/6/2
f 8/7/1 10/8/1 12/9/1 6/10/1
f 6/11/3 2/12/3 4/3/3 8/13/3
f 2/12/4 11/14/4 9/4/4 4/3/4
f 6/10/5 12/9/5 11/14/5 2/12/5
f 3/15/6 7/2/6 10/16/6 9/4/6
f 1/17/6 3/15/6 9/4/6 11/14/6
f 7/2/6 5/1/6 12/18/6 10/16/6
f 5/1/6 1/17/6 11/14/6 12/18/6
f 14/2/3 13/15/3 25/15/3 26/2/3
f 7/2/2 3/15/2 13/15/2 14/2/2
f 1/17/5 5/1/5 16/1/5 15/17/5
f 3/15/4 1/17/4 15/17/4 13/15/4
f 19/17/5 20/1/5 36/1/5 35/17/5
f 20/1/6 19/17/6 32/17/6 31/1/6
f 19/17/6 17/15/6 24/15/6 23/17/6
f 16/1/1 14/2/1 18/2/1 20/1/1
f 22/15/4 21/17/4 23/17/4 24/15/4
f 13/15/3 15/17/3 21/17/3 22/15/3
f 17/15/2 13/15/2 22/15/2 24/15/2
f 15/17/5 19/17/5 23/17/5 21/17/5
f 26/2/2 25/15/2 27/15/2 28/2/2
f 13/15/4 17/15/4 27/15/4 25/15/4
f 17/15/6 18/2/6 28/2/6 27/15/6
f 18/2/1 14/2/1 26/2/1 28/2/1
f 30/17/5 29/1/5 31/1/5 32/17/5
f 15/17/3 16/1/3 29/1/3 30/17/3
f 16/1/1 20/1/1 31/1/1 29/1/1
f 19/17/4 15/17/4 30/17/4 32/17/4
f 35/17/6 36/1/6 34/2/6 33/15/6
f 17/15/4 19/17/4 35/17/4 33/15/4
f 20/1/1 18/2/1 34/2/1 36/1/1
f 18/2/2 17/15/2 33/15/2 34/2/2
