<?xml version="1.0" encoding="UTF-8" standalone="no"?>
<svg
   height="16"
   viewBox="0 0 16 16"
   width="16"
   version="1.1"
   id="svg1"
   xmlns="http://www.w3.org/2000/svg"
   xmlns:svg="http://www.w3.org/2000/svg">
  <defs
     id="defs1" />
  <path
     id="path6"
     d="M 7.984375 1.0019531 A 1.0001 1.0001 0 0 0 7.2929688 1.2929688 L 5.2929688 3.2929688 L 6.7070312 4.7070312 L 7.4355469 3.9785156 L 7.4355469 6.0878906 A 2 2 0 0 0 6.0800781 7.4550781 L 3.9589844 7.4550781 L 4.7070312 6.7070312 L 3.2929688 5.2929688 L 1.2929688 7.2929688 A 1.0001 1.0001 0 0 0 1.2929688 8.7070312 L 3.2929688 10.707031 L 4.7070312 9.2929688 L 3.8691406 8.4550781 L 6.0605469 8.4550781 A 2 2 0 0 0 7.4355469 9.9121094 L 7.4355469 12.021484 L 6.7070312 11.292969 L 5.2929688 12.707031 L 7.2929688 14.707031 A 1.0001 1.0001 0 0 0 8.7070312 14.707031 L 10.707031 12.707031 L 9.2929688 11.292969 L 8.4355469 12.150391 L 8.4355469 9.9433594 A 2 2 0 0 0 9.9394531 8.4550781 L 12.130859 8.4550781 L 11.292969 9.2929688 L 12.707031 10.707031 L 14.707031 8.7070312 A 1.0001 1.0001 0 0 0 14.707031 7.2929688 L 12.707031 5.2929688 L 11.292969 6.7070312 L 12.041016 7.4550781 L 9.9238281 7.4550781 A 2 2 0 0 0 9.9238281 7.453125 A 2 2 0 0 0 8.4355469 6.0488281 L 8.4355469 3.8496094 L 9.2929688 4.7070312 L 10.707031 3.2929688 L 8.7070312 1.2929688 A 1.0001 1.0001 0 0 0 7.984375 1.0019531 z "
     style="fill:#e0e0e0;fill-opacity:1" />
</svg>
