<?xml version="1.0" encoding="UTF-8" standalone="no"?>
<svg
   height="16"
   viewBox="0 0 16 16"
   width="16"
   version="1.1"
   id="svg1"
   sodipodi:docname="rotate.svg"
   inkscape:version="1.3 (0e150ed6c4, 2023-07-21)"
   xmlns:inkscape="http://www.inkscape.org/namespaces/inkscape"
   xmlns:sodipodi="http://sodipodi.sourceforge.net/DTD/sodipodi-0.dtd"
   xmlns="http://www.w3.org/2000/svg"
   xmlns:svg="http://www.w3.org/2000/svg">
  <sodipodi:namedview
     id="namedview1"
     pagecolor="#ffffff"
     bordercolor="#111111"
     borderopacity="1"
     inkscape:showpageshadow="0"
     inkscape:pageopacity="0"
     inkscape:pagecheckerboard="1"
     inkscape:deskcolor="#d1d1d1"
     inkscape:zoom="51.3125"
     inkscape:cx="8"
     inkscape:cy="8"
     inkscape:window-width="1920"
     inkscape:window-height="1017"
     inkscape:window-x="1912"
     inkscape:window-y="-8"
     inkscape:window-maximized="1"
     inkscape:current-layer="svg1" />
  <defs
     id="defs1" />
  <path
     id="path6"
     d="M 7.984375,1.0019531 A 1.0001,1.0001 0 0 0 7.2929688,1.2929688 l -2,2 1.4140624,1.4140624 0.7285157,-0.7285156 v 2.109375 A 2,2 0 0 0 6.0800781,7.4550781 H 3.9589844 L 4.7070312,6.7070312 3.2929688,5.2929688 l -2,2 a 1.0001,1.0001 0 0 0 0,1.4140624 l 2,1.9999998 L 4.7070312,9.2929688 3.8691406,8.4550781 h 2.1914063 a 2,2 0 0 0 1.375,1.4570313 v 2.1093746 l -0.7285157,-0.728515 -1.4140624,1.414062 2,2 a 1.0001,1.0001 0 0 0 1.4140624,0 l 1.9999998,-2 -1.4140622,-1.414062 -0.8574219,0.857422 V 9.9433594 A 2,2 0 0 0 9.9394531,8.4550781 h 2.1914059 l -0.83789,0.8378907 1.414062,1.4140622 2,-1.9999998 a 1.0001,1.0001 0 0 0 0,-1.4140624 l -2,-2 -1.414062,1.4140624 0.748047,0.7480469 H 9.9238281 a 2,2 0 0 0 0,-0.00195 2,2 0 0 0 -1.4882812,-1.4043 V 3.8496094 l 0.8574219,0.8574218 1.4140622,-1.4140624 -1.9999998,-2 A 1.0001,1.0001 0 0 0 7.984375,1.0019531 Z"
     style="display:none;fill:#e0e0e0;fill-opacity:1"
     sodipodi:insensitive="true" />
  <path
     style="color:#000000;fill:#e0e0e0;stroke-linejoin:round;-inkscape-stroke:none;fill-opacity:1"
     d="M 7.2089844,2.2285156 7.4160156,3.7148438 C 9.3409772,3.4482046 11.20558,4.4677528 12.019531,6.2324219 12.833483,7.9970912 12.397714,10.077976 10.945313,11.369141 9.4929119,12.660305 7.3759307,12.849034 5.71875,11.833984 4.061569,10.818935 3.2675318,8.8472753 3.7578125,6.9667969 L 2.3066406,6.5878906 c -0.6553552,2.5136243 0.4137623,5.1685804 2.6289063,6.5253904 2.2151436,1.35681 5.0663971,1.102845 7.0078121,-0.623047 1.941416,-1.725891 2.525504,-4.5259424 1.4375,-6.8847653 C 12.292856,3.2466461 9.782069,1.8721006 7.2089844,2.2285156 Z"
     id="path1" />
  <path
     style="color:#000000;fill:#e0e0e0;fill-opacity:1;stroke-linejoin:round;-inkscape-stroke:none"
     d="M 7.7832031,0.39648438 5.9511719,2.3457031 C 5.6209722,2.697581 5.6270031,3.2472487 5.9648439,3.5917969 L 7.9316406,5.5996094 8.9244705,4.3788206 7.5611892,2.9881957 8.8014236,1.6678831 Z"
     id="path2"
     sodipodi:nodetypes="cccccccc" />
</svg>
