<?xml version="1.0" encoding="UTF-8" standalone="no"?>
<svg
   height="16"
   viewBox="0 0 16 16"
   width="16"
   version="1.1"
   id="svg1"
   sodipodi:docname="uv_lock.svg"
   inkscape:version="1.3 (0e150ed6c4, 2023-07-21)"
   xmlns:inkscape="http://www.inkscape.org/namespaces/inkscape"
   xmlns:sodipodi="http://sodipodi.sourceforge.net/DTD/sodipodi-0.dtd"
   xmlns="http://www.w3.org/2000/svg"
   xmlns:svg="http://www.w3.org/2000/svg">
  <sodipodi:namedview
     id="namedview1"
     pagecolor="#ffffff"
     bordercolor="#111111"
     borderopacity="1"
     inkscape:showpageshadow="0"
     inkscape:pageopacity="0"
     inkscape:pagecheckerboard="1"
     inkscape:deskcolor="#d1d1d1"
     inkscape:zoom="51.3125"
     inkscape:cx="7.9902558"
     inkscape:cy="8"
     inkscape:window-width="1920"
     inkscape:window-height="1017"
     inkscape:window-x="1912"
     inkscape:window-y="-8"
     inkscape:window-maximized="1"
     inkscape:current-layer="svg1" />
  <defs
     id="defs1" />
  <path
     style="fill:none;stroke:#e1eb00;stroke-width:1px;stroke-linecap:round;stroke-linejoin:miter;stroke-opacity:1"
     d="M 9.7442144,7.4445797 9.705246,9.4713764"
     id="path5"
     sodipodi:nodetypes="cc" />
  <rect
     style="fill:none;fill-opacity:1;stroke:#e1eb00;stroke-width:1.5;stroke-linecap:round;stroke-linejoin:round;stroke-dashoffset:0.8;stroke-opacity:1"
     id="rect5"
     width="8.8867235"
     height="6.7624846"
     x="5.3982954"
     y="5.3398294"
     ry="0.85064477" />
  <path
     style="fill:#ffffff;fill-opacity:1;stroke:none;stroke-width:1px;stroke-linecap:butt;stroke-linejoin:miter;stroke-opacity:1"
     d="m 0.95493298,9.8611449 -3e-7,3.3909861 c 0,0 0.38976862,2.026797 2.02679662,1.968332 1.637028,-0.05847 1.9683313,-1.812424 1.9683313,-1.812424 L 4.9110841,9.8611449 3.9366626,9.8806333 3.9171742,13.427527 c 0,0 -0.2508485,0.915959 -0.954933,0.954934 -0.68355,0.03784 -1.1498173,-1.24726 -1.1498173,-1.24726 l 0.097442,-3.2935445 z"
     id="path1"
     sodipodi:nodetypes="cccccccsccc" />
  <path
     id="rect6"
     style="fill:none;stroke:#e1eb00;stroke-width:1.5;stroke-linecap:round;stroke-linejoin:round;stroke-dashoffset:0.8"
     d="m 7.269184,4.8204878 v -2.430257 c 0,-0.5144431 0.4141555,-0.9285986 0.9285986,-0.9285986 v 0 h 3.4046784 c 0.514443,0 0.928598,0.4141555 0.928598,0.9285986 v 2.430257"
     sodipodi:nodetypes="csscssc" />
  <path
     style="fill:#ffffff;fill-opacity:1;stroke:none;stroke-width:1px;stroke-linecap:butt;stroke-linejoin:miter;stroke-opacity:1"
     d="M 5.2228989,9.8611449 6.5676005,15.103533 7.4445798,15.123021 8.9646773,9.8221681 8.1461632,9.8806334 7.0548112,13.52497 6.0803898,9.8806333 Z"
     id="path2"
     sodipodi:nodetypes="cccccccc" />
</svg>
