<?xml version="1.0" encoding="UTF-8" standalone="no"?>
<svg
   height="128"
   width="128"
   version="1.1"
   id="svg10"
   sodipodi:docname="icon.svg"
   inkscape:version="1.3 (0e150ed6c4, 2023-07-21)"
   inkscape:export-filename="icon.png"
   inkscape:export-xdpi="72"
   inkscape:export-ydpi="72"
   xmlns:inkscape="http://www.inkscape.org/namespaces/inkscape"
   xmlns:sodipodi="http://sodipodi.sourceforge.net/DTD/sodipodi-0.dtd"
   xmlns="http://www.w3.org/2000/svg"
   xmlns:svg="http://www.w3.org/2000/svg">
  <defs
     id="defs10" />
  <sodipodi:namedview
     id="namedview10"
     pagecolor="#ffffff"
     bordercolor="#111111"
     borderopacity="1"
     inkscape:showpageshadow="0"
     inkscape:pageopacity="0"
     inkscape:pagecheckerboard="1"
     inkscape:deskcolor="#d1d1d1"
     inkscape:zoom="6.4140625"
     inkscape:cx="64"
     inkscape:cy="64"
     inkscape:window-width="1920"
     inkscape:window-height="1017"
     inkscape:window-x="1912"
     inkscape:window-y="-8"
     inkscape:window-maximized="1"
     inkscape:current-layer="layer1" />
  <g
     transform="translate(32,32)"
     id="g2"
     style="display:inline;fill:#4263cb;fill-opacity:1;stroke:none;stroke-opacity:1"
     sodipodi:insensitive="true">
    <path
       d="m -16,-32 c -8.86,0 -16,7.13 -16,15.99 v 95.98 c 0,8.86 7.13,15.99 16,15.99 h 96 c 8.86,0 16,-7.13 16,-15.99 V -16.01 C 96,-24.86 88.86,-32 80,-32 Z"
       fill="#363d52"
       id="path1"
       style="fill:#ffffff;fill-opacity:1;stroke:none;stroke-opacity:1" />
  </g>
  <g
     inkscape:groupmode="layer"
     id="layer1"
     inkscape:label="my_art">
    <path
       style="fill:none;stroke:#4263cb;stroke-width:2;stroke-linecap:round;stroke-linejoin:round;stroke-dasharray:none;stroke-opacity:1"
       d="M 41.783192,62.051158 46.772229,23.386115 62.362973,11.069427 80.915957,22.918392 84.034105,53.320341"
       id="path11"
       sodipodi:nodetypes="ccccc" />
    <path
       style="fill:none;stroke:#4263cb;stroke-width:2;stroke-linecap:round;stroke-linejoin:round;stroke-dasharray:none;stroke-opacity:1"
       d="m 62.674787,11.225335 0.155908,21.047503"
       id="path12"
       sodipodi:nodetypes="cc" />
    <path
       style="fill:none;stroke:#4263cb;stroke-width:2;stroke-linecap:round;stroke-linejoin:round;stroke-dasharray:none;stroke-opacity:1"
       d="M 62.51888,51.293544 62.362973,79.668697"
       id="path13"
       sodipodi:nodetypes="cc" />
    <path
       style="fill:none;stroke:#4263cb;stroke-width:2;stroke-linecap:round;stroke-linejoin:round;stroke-dasharray:none;stroke-opacity:1"
       d="m 51.137637,43.939099 c 0,0 4.989037,-8.574909 11.693057,-8.419002 6.704019,0.155908 12.004872,8.263094 12.004872,8.263094"
       id="path14"
       sodipodi:nodetypes="csc" />
    <path
       style="fill:none;stroke:#4263cb;stroke-width:2;stroke-linecap:round;stroke-linejoin:round;stroke-dasharray:none;stroke-opacity:1"
       d="m 53.008526,41.912302 c 0,0 2.026797,6.08039 9.822168,6.08039 7.795372,0 10.133983,-6.08039 10.133983,-6.08039"
       id="path15"
       sodipodi:nodetypes="csc" />
    <path
       style="fill:none;stroke:#4263cb;stroke-width:2;stroke-linecap:round;stroke-linejoin:round;stroke-dasharray:none;stroke-opacity:1"
       d="m 33.676005,57.685749 c 0,0 6.859927,0.467723 7.795371,3.429964 0.935445,2.962241 -0.748769,7.957495 -0.935444,10.757613 -0.155907,2.338611 11.019444,5.365002 12.16078,6.392204 1.559074,1.403166 4.677223,4.053592 4.677223,5.612667"
       id="path16"
       sodipodi:nodetypes="csssc" />
    <path
       style="fill:none;stroke:#4263cb;stroke-width:2;stroke-linecap:round;stroke-linejoin:round;stroke-dasharray:none;stroke-opacity:1"
       d="m 55.658953,86.528624 c 1.091352,-2.650426 4.119982,-5.611227 6.859927,-6.859928 2.980014,-1.358109 7.172451,-1.473268 8.886724,-1.559074 2.751335,-0.137715 8.730815,0.311815 10.445797,0.935445"
       id="path17"
       sodipodi:nodetypes="cssc" />
    <path
       style="fill:none;stroke:#4263cb;stroke-width:2;stroke-linecap:round;stroke-linejoin:round;stroke-dasharray:none;stroke-opacity:1"
       d="m 74.367844,77.485993 c 0,0 0.966742,-1.975666 3.429963,-2.650427 1.827791,-0.500695 4.053594,-1.403167 5.924483,-0.935444"
       id="path18"
       sodipodi:nodetypes="csc" />
    <path
       style="fill:none;stroke:#4263cb;stroke-width:2;stroke-linecap:round;stroke-linejoin:round;stroke-dasharray:none;stroke-opacity:1"
       d="m 82.163217,72.18514 c 0.155908,-1.559074 0.768839,-2.776293 1.559074,-3.585871 0.916071,-0.938494 2.182704,-1.403167 2.182704,-1.403167"
       id="path19"
       sodipodi:nodetypes="csc"
       inkscape:export-filename="path19.png"
       inkscape:export-xdpi="72"
       inkscape:export-ydpi="72" />
    <path
       style="fill:none;stroke:#4263cb;stroke-width:2;stroke-linecap:round;stroke-linejoin:round;stroke-dasharray:none;stroke-opacity:1"
       d="m 87.308162,60.336176 c -3.429965,-1.091352 -5.456761,-5.768575 -0.779538,-9.510353 2.465113,-1.97209 3.741778,-0.623631 3.741778,-0.623631 0,0 0.155907,5.300853 1.559074,7.639465 1.403167,2.338611 0.155908,7.951279 -0.779537,11.069427 -0.935444,3.118149 0,5.443228 0,9.042631 0,2.650426 -1.604809,5.789542 -3.897686,8.263094 -2.774162,2.992761 -8.231109,5.978015 -10.289889,7.171742 -2.360656,1.368761 -5.300853,3.897686 -6.548112,6.392207"
       id="path20"
       sodipodi:nodetypes="cscsssssc" />
    <path
       style="fill:none;stroke:#4263cb;stroke-width:2;stroke-linecap:round;stroke-linejoin:round;stroke-dasharray:none;stroke-opacity:1"
       d="m 75.615102,94.947625 c 0,0 0.155908,6.236295 0.779538,9.198545 0.62363,2.96224 3.274056,10.6017 3.274056,10.6017 0,0 -4.525367,2.67325 -9.04263,4.52131 -4.288337,1.75441 -13.252132,1.8709 -16.370281,0.46773 -3.118149,-1.40316 -8.419,-3.89769 -8.419,-3.89769 0,0 3.274055,-6.85992 3.429963,-11.38124 0.155907,-4.521312 -10e-7,-7.795374 -10e-7,-7.795374"
       id="path21"
       sodipodi:nodetypes="cscsscsc" />
    <path
       style="fill:none;stroke:#4263cb;stroke-width:2;stroke-linecap:round;stroke-linejoin:round;stroke-dasharray:none;stroke-opacity:1"
       d="M 52.696712,98.377588 C 52.073082,98.221681 45.730131,92.699723 40.847747,91.205846 35.180126,89.471707 36.152648,85.811483 34.61145,82.630938 33.269777,79.862149 30.843472,76.009823 32.116931,73.744214 33.608644,71.09031 35.079172,67.35201 34.767357,64.545676 34.455543,61.739343 33.831912,57.997564 33.831912,57.997564"
       id="path22"
       sodipodi:nodetypes="csassc" />
    <path
       style="fill:none;stroke:#4263cb;stroke-width:2;stroke-linecap:round;stroke-linejoin:round;stroke-dasharray:none;stroke-opacity:1"
       d="m 85.125457,60.492083 c 0,0 -0.779537,1.403166 -0.62363,4.365407 0.09051,1.719675 2.962241,2.962243 2.962241,2.962243"
       id="path23"
       sodipodi:nodetypes="csc" />
    <ellipse
       style="fill:#4263cb;fill-opacity:1;stroke:none;stroke-width:2;stroke-linecap:round;stroke-linejoin:round;stroke-opacity:1"
       id="path24"
       cx="62.752739"
       cy="41.21072"
       rx="3.3520098"
       ry="4.4433618" />
  </g>
  <g
     inkscape:groupmode="layer"
     id="layer2"
     inkscape:label="Layer 1"
     style="display:inline"
     sodipodi:insensitive="true">
    <path
       d="m -16,-32 c -8.86,0 -16,7.13 -16,15.99 v 95.98 c 0,8.86 7.13,15.99 16,15.99 h 96 c 8.86,0 16,-7.13 16,-15.99 V -16.01 C 96,-24.86 88.86,-32 80,-32 Z m 0,4 h 96 c 6.64,0 12,5.35 12,11.99 v 95.98 c 0,6.64 -5.35,11.99 -12,11.99 h -96 c -6.64,0 -12,-5.35 -12,-11.99 v -95.98 c 0,-6.64 5.36,-11.99 12,-11.99 z"
       fill-opacity=".4"
       id="path2"
       style="fill:#4263cb;fill-opacity:1;stroke:none;stroke-opacity:1"
       transform="translate(32,32)" />
  </g>
</svg>
