# Blender 3.6.0
# www.blender.org
mtllib gizmo_translate.mtl
o axis_y.001
v 0.000000 0.717292 -0.135914
v 0.067957 0.717292 -0.117705
v 0.117705 0.717292 -0.067957
v 0.135914 0.717292 0.000000
v 0.117705 0.717292 0.067957
v 0.067957 0.717292 0.117705
v 0.000000 0.717292 0.135914
v -0.067957 0.717292 0.117705
v -0.117705 0.717292 0.067957
v -0.135914 0.717292 0.000000
v -0.117705 0.717292 -0.067957
v -0.067957 0.717292 -0.117705
v 0.000000 1.001353 0.000000
v 0.000000 0.108031 -0.023669
v 0.000000 0.717292 -0.023669
v 0.011834 0.108031 -0.020498
v 0.011834 0.717292 -0.020498
v 0.020498 0.108031 -0.011834
v 0.020498 0.717292 -0.011834
v 0.023669 0.108031 0.000000
v 0.023669 0.717292 0.000000
v 0.020498 0.108031 0.011834
v 0.020498 0.717292 0.011834
v 0.011834 0.108031 0.020498
v 0.011834 0.717292 0.020498
v 0.000000 0.108031 0.023669
v 0.000000 0.717292 0.023669
v -0.011834 0.108031 0.020498
v -0.011834 0.717292 0.020498
v -0.020498 0.108031 0.011834
v -0.020498 0.717292 0.011834
v -0.023669 0.108031 0.000000
v -0.023669 0.717292 0.000000
v -0.020498 0.108031 -0.011834
v -0.020498 0.717292 -0.011834
v -0.011834 0.108031 -0.020498
v -0.011834 0.717292 -0.020498
v 0.000000 0.717292 -0.135914
v 0.067957 0.717292 -0.117705
v 0.117705 0.717292 -0.067957
v 0.135914 0.717292 0.000000
v 0.117705 0.717292 0.067957
v 0.067957 0.717292 0.117705
v 0.000000 0.717292 0.135914
v -0.067957 0.717292 0.117705
v -0.117705 0.717292 0.067957
v -0.135914 0.717292 0.000000
v -0.117705 0.717292 -0.067957
v -0.067957 0.717292 -0.117705
v 0.000000 0.108031 -0.023669
v 0.011834 0.108031 -0.020498
v 0.011834 0.717292 -0.020498
v 0.000000 0.717292 -0.023669
v 0.020498 0.108031 -0.011834
v 0.020498 0.717292 -0.011834
v 0.023669 0.108031 0.000000
v 0.023669 0.717292 0.000000
v 0.020498 0.108031 0.011834
v 0.020498 0.717292 0.011834
v 0.011834 0.108031 0.020498
v 0.011834 0.717292 0.020498
v 0.000000 0.108031 0.023669
v 0.000000 0.717292 0.023669
v -0.011834 0.108031 0.020498
v -0.011834 0.717292 0.020498
v -0.020498 0.108031 0.011834
v -0.020498 0.717292 0.011834
v -0.023669 0.108031 0.000000
v -0.023669 0.717292 0.000000
v -0.020498 0.108031 -0.011834
v -0.020498 0.717292 -0.011834
v -0.011834 0.108031 -0.020498
v -0.011834 0.717292 -0.020498
vn -0.0000 0.4316 -0.9021
vn -0.0000 1.0000 -0.0000
vn 0.4510 0.4316 -0.7812
vn 0.7812 0.4316 -0.4510
vn 0.9021 0.4316 -0.0000
vn 0.7812 0.4316 0.4510
vn 0.4510 0.4316 0.7812
vn -0.0000 0.4316 0.9021
vn -0.4510 0.4316 0.7812
vn -0.7812 0.4316 0.4510
vn -0.9021 0.4316 -0.0000
vn -0.7812 0.4316 -0.4510
vn -0.0000 -1.0000 -0.0000
vn -0.4510 0.4316 -0.7812
vn -0.0000 -0.0000 -1.0000
vn 0.5000 -0.0000 -0.8660
vn 0.8660 -0.0000 -0.5000
vn 1.0000 -0.0000 -0.0000
vn 0.8660 -0.0000 0.5000
vn 0.5000 -0.0000 0.8660
vn -0.0000 -0.0000 1.0000
vn -0.5000 -0.0000 0.8660
vn -0.8660 -0.0000 0.5000
vn -1.0000 -0.0000 -0.0000
vn -0.8660 -0.0000 -0.5000
vn -0.5000 -0.0000 -0.8660
vt 0.250000 0.490000
vt 0.250000 0.250000
vt 0.370000 0.457846
vt 0.457846 0.370000
vt 0.490000 0.250000
vt 0.457846 0.130000
vt 0.370000 0.042154
vt 0.250000 0.010000
vt 0.130000 0.042154
vt 0.042154 0.130000
vt 0.010000 0.250000
vt 0.042154 0.370000
vt 0.083333 1.000000
vt 0.166667 1.000000
vt 0.130000 0.457846
vt 1.000000 0.500000
vt 1.000000 1.000000
vt 0.916667 1.000000
vt 0.916667 0.500000
vt 0.833333 1.000000
vt 0.833333 0.500000
vt 0.750000 1.000000
vt 0.750000 0.500000
vt 0.666667 1.000000
vt 0.666667 0.500000
vt 0.583333 1.000000
vt 0.583333 0.500000
vt 0.500000 1.000000
vt 0.500000 0.500000
vt 0.416667 1.000000
vt 0.416667 0.500000
vt 0.333333 1.000000
vt 0.333333 0.500000
vt 0.250000 1.000000
vt 0.250000 0.500000
vt 0.166667 0.500000
vt 0.000000 1.000000
vt 0.083333 0.500000
vt 0.000000 0.500000
vt 0.750000 0.490000
vt 0.870000 0.457846
vt 0.957846 0.370000
vt 0.990000 0.250000
vt 0.957846 0.130000
vt 0.870000 0.042154
vt 0.750000 0.010000
vt 0.630000 0.042154
vt 0.542154 0.130000
vt 0.510000 0.250000
vt 0.542154 0.370000
vt 0.630000 0.457846
s 1
usemtl dim_y
f 38/1/1 13/2/2 39/3/3
f 39/3/3 13/2/2 40/4/4
f 40/4/4 13/2/2 41/5/5
f 41/5/5 13/2/2 42/6/6
f 42/6/6 13/2/2 43/7/7
f 43/7/7 13/2/2 44/8/8
f 44/8/8 13/2/2 45/9/9
f 45/9/9 13/2/2 46/10/10
f 46/10/10 13/2/2 47/11/11
f 47/11/11 13/2/2 48/12/12
f 73/13/13 35/14/13 11/12/13 49/15/13
f 48/12/12 13/2/2 12/15/14
f 12/15/14 13/2/2 38/1/1
f 50/16/15 53/17/15 52/18/16 51/19/16
f 51/19/16 52/18/16 55/20/17 54/21/17
f 54/21/17 55/20/17 57/22/18 56/23/18
f 56/23/18 57/22/18 59/24/19 58/25/19
f 58/25/19 59/24/19 61/26/20 60/27/20
f 60/27/20 61/26/20 63/28/21 62/29/21
f 62/29/21 63/28/21 65/30/22 64/31/22
f 64/31/22 65/30/22 67/32/23 66/33/23
f 66/33/23 67/32/23 69/34/24 68/35/24
f 68/35/24 69/34/24 71/14/25 70/36/25
f 15/37/13 73/13/13 49/15/13 1/1/13
f 70/36/25 71/14/25 37/13/26 72/38/26
f 72/38/26 37/13/26 53/37/15 50/39/15
f 14/40/13 16/41/13 18/42/13 20/43/13 22/44/13 24/45/13 26/46/13 28/47/13 30/48/13 32/49/13 34/50/13 36/51/13
f 35/14/13 33/34/13 10/11/13 11/12/13
f 33/34/13 31/32/13 9/10/13 10/11/13
f 31/32/13 29/30/13 8/9/13 9/10/13
f 29/30/13 27/28/13 7/8/13 8/9/13
f 27/28/13 25/26/13 6/7/13 7/8/13
f 25/26/13 23/24/13 5/6/13 6/7/13
f 23/24/13 21/22/13 4/5/13 5/6/13
f 21/22/13 19/20/13 3/4/13 4/5/13
f 19/20/13 17/18/13 2/3/13 3/4/13
f 17/18/13 15/17/13 1/1/13 2/3/13
o axis_z
v 0.000000 0.135914 0.717292
v 0.067957 0.117705 0.717292
v 0.117705 0.067957 0.717292
v 0.135914 -0.000000 0.717292
v 0.117705 -0.067957 0.717292
v 0.067957 -0.117705 0.717292
v 0.000000 -0.135914 0.717292
v -0.067957 -0.117705 0.717292
v -0.117705 -0.067957 0.717292
v -0.135914 -0.000000 0.717292
v -0.117705 0.067957 0.717292
v -0.067957 0.117705 0.717292
v 0.000000 -0.000000 1.001353
v 0.000000 0.023669 0.108031
v 0.000000 0.023669 0.717292
v 0.011834 0.020498 0.108031
v 0.011834 0.020498 0.717292
v 0.020498 0.011834 0.108031
v 0.020498 0.011834 0.717292
v 0.023669 -0.000000 0.108031
v 0.023669 -0.000000 0.717292
v 0.020498 -0.011834 0.108031
v 0.020498 -0.011834 0.717292
v 0.011834 -0.020498 0.108031
v 0.011834 -0.020498 0.717292
v 0.000000 -0.023669 0.108031
v 0.000000 -0.023669 0.717292
v -0.011834 -0.020498 0.108031
v -0.011834 -0.020498 0.717292
v -0.020498 -0.011834 0.108031
v -0.020498 -0.011834 0.717292
v -0.023669 -0.000000 0.108031
v -0.023669 -0.000000 0.717292
v -0.020498 0.011834 0.108031
v -0.020498 0.011834 0.717292
v -0.011834 0.020498 0.108031
v -0.011834 0.020498 0.717292
v 0.000000 0.135914 0.717292
v 0.067957 0.117705 0.717292
v 0.117705 0.067957 0.717292
v 0.135914 -0.000000 0.717292
v 0.117705 -0.067957 0.717292
v 0.067957 -0.117705 0.717292
v 0.000000 -0.135914 0.717292
v -0.067957 -0.117705 0.717292
v -0.117705 -0.067957 0.717292
v -0.135914 -0.000000 0.717292
v -0.117705 0.067957 0.717292
v -0.067957 0.117705 0.717292
v 0.000000 0.023669 0.108031
v 0.011834 0.020498 0.108031
v 0.011834 0.020498 0.717292
v 0.000000 0.023669 0.717292
v 0.020498 0.011834 0.108031
v 0.020498 0.011834 0.717292
v 0.023669 -0.000000 0.108031
v 0.023669 -0.000000 0.717292
v 0.020498 -0.011834 0.108031
v 0.020498 -0.011834 0.717292
v 0.011834 -0.020498 0.108031
v 0.011834 -0.020498 0.717292
v 0.000000 -0.023669 0.108031
v 0.000000 -0.023669 0.717292
v -0.011834 -0.020498 0.108031
v -0.011834 -0.020498 0.717292
v -0.020498 -0.011834 0.108031
v -0.020498 -0.011834 0.717292
v -0.023669 -0.000000 0.108031
v -0.023669 -0.000000 0.717292
v -0.020498 0.011834 0.108031
v -0.020498 0.011834 0.717292
v -0.011834 0.020498 0.108031
v -0.011834 0.020498 0.717292
vn -0.0000 0.9021 0.4316
vn -0.0000 -0.0000 1.0000
vn 0.4510 0.7812 0.4316
vn 0.7812 0.4510 0.4316
vn 0.9021 -0.0000 0.4316
vn 0.7812 -0.4510 0.4316
vn 0.4510 -0.7812 0.4316
vn -0.0000 -0.9021 0.4316
vn -0.4510 -0.7812 0.4316
vn -0.7812 -0.4510 0.4316
vn -0.9021 -0.0000 0.4316
vn -0.7812 0.4510 0.4316
vn -0.0000 -0.0000 -1.0000
vn -0.4510 0.7812 0.4316
vn -0.0000 1.0000 -0.0000
vn 0.5000 0.8660 -0.0000
vn 0.8660 0.5000 -0.0000
vn 1.0000 -0.0000 -0.0000
vn 0.8660 -0.5000 -0.0000
vn 0.5000 -0.8660 -0.0000
vn -0.0000 -1.0000 -0.0000
vn -0.5000 -0.8660 -0.0000
vn -0.8660 -0.5000 -0.0000
vn -1.0000 -0.0000 -0.0000
vn -0.8660 0.5000 -0.0000
vn -0.5000 0.8660 -0.0000
vt 0.250000 0.490000
vt 0.250000 0.250000
vt 0.370000 0.457846
vt 0.457846 0.370000
vt 0.490000 0.250000
vt 0.457846 0.130000
vt 0.370000 0.042154
vt 0.250000 0.010000
vt 0.130000 0.042154
vt 0.042154 0.130000
vt 0.010000 0.250000
vt 0.042154 0.370000
vt 0.083333 1.000000
vt 0.166667 1.000000
vt 0.130000 0.457846
vt 1.000000 0.500000
vt 1.000000 1.000000
vt 0.916667 1.000000
vt 0.916667 0.500000
vt 0.833333 1.000000
vt 0.833333 0.500000
vt 0.750000 1.000000
vt 0.750000 0.500000
vt 0.666667 1.000000
vt 0.666667 0.500000
vt 0.583333 1.000000
vt 0.583333 0.500000
vt 0.500000 1.000000
vt 0.500000 0.500000
vt 0.416667 1.000000
vt 0.416667 0.500000
vt 0.333333 1.000000
vt 0.333333 0.500000
vt 0.250000 1.000000
vt 0.250000 0.500000
vt 0.166667 0.500000
vt 0.000000 1.000000
vt 0.083333 0.500000
vt 0.000000 0.500000
vt 0.750000 0.490000
vt 0.870000 0.457846
vt 0.957846 0.370000
vt 0.990000 0.250000
vt 0.957846 0.130000
vt 0.870000 0.042154
vt 0.750000 0.010000
vt 0.630000 0.042154
vt 0.542154 0.130000
vt 0.510000 0.250000
vt 0.542154 0.370000
vt 0.630000 0.457846
s 1
usemtl dim_z
f 111/52/27 86/53/28 112/54/29
f 112/54/29 86/53/28 113/55/30
f 113/55/30 86/53/28 114/56/31
f 114/56/31 86/53/28 115/57/32
f 115/57/32 86/53/28 116/58/33
f 116/58/33 86/53/28 117/59/34
f 117/59/34 86/53/28 118/60/35
f 118/60/35 86/53/28 119/61/36
f 119/61/36 86/53/28 120/62/37
f 120/62/37 86/53/28 121/63/38
f 146/64/39 108/65/39 84/63/39 122/66/39
f 121/63/38 86/53/28 85/66/40
f 85/66/40 86/53/28 111/52/27
f 123/67/41 126/68/41 125/69/42 124/70/42
f 124/70/42 125/69/42 128/71/43 127/72/43
f 127/72/43 128/71/43 130/73/44 129/74/44
f 129/74/44 130/73/44 132/75/45 131/76/45
f 131/76/45 132/75/45 134/77/46 133/78/46
f 133/78/46 134/77/46 136/79/47 135/80/47
f 135/80/47 136/79/47 138/81/48 137/82/48
f 137/82/48 138/81/48 140/83/49 139/84/49
f 139/84/49 140/83/49 142/85/50 141/86/50
f 141/86/50 142/85/50 144/65/51 143/87/51
f 88/88/39 146/64/39 122/66/39 74/52/39
f 143/87/51 144/65/51 110/64/52 145/89/52
f 145/89/52 110/64/52 126/88/41 123/90/41
f 87/91/39 89/92/39 91/93/39 93/94/39 95/95/39 97/96/39 99/97/39 101/98/39 103/99/39 105/100/39 107/101/39 109/102/39
f 108/65/39 106/85/39 83/62/39 84/63/39
f 106/85/39 104/83/39 82/61/39 83/62/39
f 104/83/39 102/81/39 81/60/39 82/61/39
f 102/81/39 100/79/39 80/59/39 81/60/39
f 100/79/39 98/77/39 79/58/39 80/59/39
f 98/77/39 96/75/39 78/57/39 79/58/39
f 96/75/39 94/73/39 77/56/39 78/57/39
f 94/73/39 92/71/39 76/55/39 77/56/39
f 92/71/39 90/69/39 75/54/39 76/55/39
f 90/69/39 88/68/39 74/52/39 75/54/39
o axis_x
v 0.717292 0.000000 -0.135914
v 0.717292 -0.067957 -0.117705
v 0.717292 -0.117705 -0.067957
v 0.717292 -0.135914 0.000000
v 0.717292 -0.117705 0.067957
v 0.717292 -0.067957 0.117705
v 0.717292 0.000000 0.135914
v 0.717292 0.067957 0.117705
v 0.717292 0.117705 0.067957
v 0.717292 0.135914 0.000000
v 0.717292 0.117705 -0.067957
v 0.717292 0.067957 -0.117705
v 1.001353 0.000000 0.000000
v 0.108031 0.000000 -0.023669
v 0.717292 0.000000 -0.023669
v 0.108031 -0.011834 -0.020498
v 0.717292 -0.011834 -0.020498
v 0.108031 -0.020498 -0.011834
v 0.717292 -0.020498 -0.011834
v 0.108031 -0.023669 0.000000
v 0.717292 -0.023669 0.000000
v 0.108031 -0.020498 0.011834
v 0.717292 -0.020498 0.011834
v 0.108031 -0.011834 0.020498
v 0.717292 -0.011834 0.020498
v 0.108031 0.000000 0.023669
v 0.717292 0.000000 0.023669
v 0.108031 0.011834 0.020498
v 0.717292 0.011834 0.020498
v 0.108031 0.020498 0.011834
v 0.717292 0.020498 0.011834
v 0.108031 0.023669 0.000000
v 0.717292 0.023669 0.000000
v 0.108031 0.020498 -0.011834
v 0.717292 0.020498 -0.011834
v 0.108031 0.011834 -0.020498
v 0.717292 0.011834 -0.020498
v 0.717292 0.000000 -0.135914
v 0.717292 -0.067957 -0.117705
v 0.717292 -0.117705 -0.067957
v 0.717292 -0.135914 0.000000
v 0.717292 -0.117705 0.067957
v 0.717292 -0.067957 0.117705
v 0.717292 0.000000 0.135914
v 0.717292 0.067957 0.117705
v 0.717292 0.117705 0.067957
v 0.717292 0.135914 0.000000
v 0.717292 0.117705 -0.067957
v 0.717292 0.067957 -0.117705
v 0.108031 0.000000 -0.023669
v 0.108031 -0.011834 -0.020498
v 0.717292 -0.011834 -0.020498
v 0.717292 0.000000 -0.023669
v 0.108031 -0.020498 -0.011834
v 0.717292 -0.020498 -0.011834
v 0.108031 -0.023669 0.000000
v 0.717292 -0.023669 0.000000
v 0.108031 -0.020498 0.011834
v 0.717292 -0.020498 0.011834
v 0.108031 -0.011834 0.020498
v 0.717292 -0.011834 0.020498
v 0.108031 0.000000 0.023669
v 0.717292 0.000000 0.023669
v 0.108031 0.011834 0.020498
v 0.717292 0.011834 0.020498
v 0.108031 0.020498 0.011834
v 0.717292 0.020498 0.011834
v 0.108031 0.023669 0.000000
v 0.717292 0.023669 0.000000
v 0.108031 0.020498 -0.011834
v 0.717292 0.020498 -0.011834
v 0.108031 0.011834 -0.020498
v 0.717292 0.011834 -0.020498
vn 0.4316 -0.0000 -0.9021
vn 1.0000 -0.0000 -0.0000
vn 0.4316 -0.4510 -0.7812
vn 0.4316 -0.7812 -0.4510
vn 0.4316 -0.9021 -0.0000
vn 0.4316 -0.7812 0.4510
vn 0.4316 -0.4510 0.7812
vn 0.4316 -0.0000 0.9021
vn 0.4316 0.4510 0.7812
vn 0.4316 0.7812 0.4510
vn 0.4316 0.9021 -0.0000
vn 0.4316 0.7812 -0.4510
vn -1.0000 -0.0000 -0.0000
vn 0.4316 0.4510 -0.7812
vn -0.0000 -0.0000 -1.0000
vn -0.0000 -0.5000 -0.8660
vn -0.0000 -0.8660 -0.5000
vn -0.0000 -1.0000 -0.0000
vn -0.0000 -0.8660 0.5000
vn -0.0000 -0.5000 0.8660
vn -0.0000 -0.0000 1.0000
vn -0.0000 0.5000 0.8660
vn -0.0000 0.8660 0.5000
vn -0.0000 1.0000 -0.0000
vn -0.0000 0.8660 -0.5000
vn -0.0000 0.5000 -0.8660
vt 0.250000 0.490000
vt 0.250000 0.250000
vt 0.370000 0.457846
vt 0.457846 0.370000
vt 0.490000 0.250000
vt 0.457846 0.130000
vt 0.370000 0.042154
vt 0.250000 0.010000
vt 0.130000 0.042154
vt 0.042154 0.130000
vt 0.010000 0.250000
vt 0.042154 0.370000
vt 0.083333 1.000000
vt 0.166667 1.000000
vt 0.130000 0.457846
vt 1.000000 0.500000
vt 1.000000 1.000000
vt 0.916667 1.000000
vt 0.916667 0.500000
vt 0.833333 1.000000
vt 0.833333 0.500000
vt 0.750000 1.000000
vt 0.750000 0.500000
vt 0.666667 1.000000
vt 0.666667 0.500000
vt 0.583333 1.000000
vt 0.583333 0.500000
vt 0.500000 1.000000
vt 0.500000 0.500000
vt 0.416667 1.000000
vt 0.416667 0.500000
vt 0.333333 1.000000
vt 0.333333 0.500000
vt 0.250000 1.000000
vt 0.250000 0.500000
vt 0.166667 0.500000
vt 0.000000 1.000000
vt 0.083333 0.500000
vt 0.000000 0.500000
vt 0.750000 0.490000
vt 0.870000 0.457846
vt 0.957846 0.370000
vt 0.990000 0.250000
vt 0.957846 0.130000
vt 0.870000 0.042154
vt 0.750000 0.010000
vt 0.630000 0.042154
vt 0.542154 0.130000
vt 0.510000 0.250000
vt 0.542154 0.370000
vt 0.630000 0.457846
s 1
usemtl dim_x
f 184/103/53 159/104/54 185/105/55
f 185/105/55 159/104/54 186/106/56
f 186/106/56 159/104/54 187/107/57
f 187/107/57 159/104/54 188/108/58
f 188/108/58 159/104/54 189/109/59
f 189/109/59 159/104/54 190/110/60
f 190/110/60 159/104/54 191/111/61
f 191/111/61 159/104/54 192/112/62
f 192/112/62 159/104/54 193/113/63
f 193/113/63 159/104/54 194/114/64
f 219/115/65 181/116/65 157/114/65 195/117/65
f 194/114/64 159/104/54 158/117/66
f 158/117/66 159/104/54 184/103/53
f 196/118/67 199/119/67 198/120/68 197/121/68
f 197/121/68 198/120/68 201/122/69 200/123/69
f 200/123/69 201/122/69 203/124/70 202/125/70
f 202/125/70 203/124/70 205/126/71 204/127/71
f 204/127/71 205/126/71 207/128/72 206/129/72
f 206/129/72 207/128/72 209/130/73 208/131/73
f 208/131/73 209/130/73 211/132/74 210/133/74
f 210/133/74 211/132/74 213/134/75 212/135/75
f 212/135/75 213/134/75 215/136/76 214/137/76
f 214/137/76 215/136/76 217/116/77 216/138/77
f 161/139/65 219/115/65 195/117/65 147/103/65
f 216/138/77 217/116/77 183/115/78 218/140/78
f 218/140/78 183/115/78 199/139/67 196/141/67
f 160/142/65 162/143/65 164/144/65 166/145/65 168/146/65 170/147/65 172/148/65 174/149/65 176/150/65 178/151/65 180/152/65 182/153/65
f 181/116/65 179/136/65 156/113/65 157/114/65
f 179/136/65 177/134/65 155/112/65 156/113/65
f 177/134/65 175/132/65 154/111/65 155/112/65
f 175/132/65 173/130/65 153/110/65 154/111/65
f 173/130/65 171/128/65 152/109/65 153/110/65
f 171/128/65 169/126/65 151/108/65 152/109/65
f 169/126/65 167/124/65 150/107/65 151/108/65
f 167/124/65 165/122/65 149/106/65 150/107/65
f 165/122/65 163/120/65 148/105/65 149/106/65
f 163/120/65 161/119/65 147/103/65 148/105/65
o plane_xz
v 0.244646 0.000000 0.516475
v 0.516475 0.000000 0.516475
v 0.244646 0.000000 0.244646
v 0.516475 0.000000 0.244646
vn -0.0000 1.0000 -0.0000
vt 0.000000 0.000000
vt 1.000000 0.000000
vt 1.000000 1.000000
vt 0.000000 1.000000
s 0
usemtl dim_y
f 220/154/79 221/155/79 223/156/79 222/157/79
o plane_yz
v 0.000000 0.244646 0.516475
v 0.000000 0.516475 0.516475
v 0.000000 0.244646 0.244646
v 0.000000 0.516475 0.244646
vn -1.0000 -0.0000 -0.0000
vt 0.000000 0.000000
vt 1.000000 0.000000
vt 1.000000 1.000000
vt 0.000000 1.000000
s 0
usemtl dim_x
f 224/158/80 225/159/80 227/160/80 226/161/80
o plane_xy
v 0.516475 0.244646 -0.000000
v 0.516475 0.516475 -0.000000
v 0.244646 0.244646 -0.000000
v 0.244646 0.516475 -0.000000
vn -0.0000 -0.0000 1.0000
vt 0.000000 0.000000
vt 1.000000 0.000000
vt 1.000000 1.000000
vt 0.000000 1.000000
s 0
usemtl dim_z
f 228/162/81 229/163/81 231/164/81 230/165/81
