<?xml version="1.0" encoding="UTF-8" standalone="no"?>
<!-- Created with Inkscape (http://www.inkscape.org/) -->

<svg
   width="24"
   height="24"
   viewBox="0 0 6.3499998 6.3500004"
   version="1.1"
   id="svg8"
   xml:space="preserve"
   sodipodi:docname="xray_normal.svg"
   inkscape:version="1.2.2 (732a01da63, 2022-12-09)"
   xmlns:inkscape="http://www.inkscape.org/namespaces/inkscape"
   xmlns:sodipodi="http://sodipodi.sourceforge.net/DTD/sodipodi-0.dtd"
   xmlns="http://www.w3.org/2000/svg"
   xmlns:svg="http://www.w3.org/2000/svg"
   xmlns:rdf="http://www.w3.org/1999/02/22-rdf-syntax-ns#"
   xmlns:cc="http://creativecommons.org/ns#"
   xmlns:dc="http://purl.org/dc/elements/1.1/"><sodipodi:namedview
     id="namedview17"
     pagecolor="#ffffff"
     bordercolor="#111111"
     borderopacity="1"
     inkscape:showpageshadow="0"
     inkscape:pageopacity="0"
     inkscape:pagecheckerboard="1"
     inkscape:deskcolor="#d1d1d1"
     showgrid="false"
     inkscape:zoom="18.495262"
     inkscape:cx="9.4078148"
     inkscape:cy="18.112747"
     inkscape:window-width="1920"
     inkscape:window-height="1017"
     inkscape:window-x="1912"
     inkscape:window-y="-8"
     inkscape:window-maximized="1"
     inkscape:current-layer="svg8" /><defs
     id="defs2"><filter
       id="selectable_hidder_filter"
       width="1"
       height="1"
       x="0"
       y="0"
       style="color-interpolation-filters:sRGB"><feComposite
         id="boolops_hidder_primitive"
         result="composite1"
         operator="arithmetic"
         in2="SourceGraphic"
         in="BackgroundImage"
         k1="0"
         k2="0"
         k3="0"
         k4="0" /></filter><clipPath
       clipPathUnits="userSpaceOnUse"
       id="clipPath874"><g
         id="use876"
         style="stroke-width:1.5"><rect
           style="fill:#0e0421;stroke:#488bd4;stroke-width:0.396874;-inkscape-stroke:none;paint-order:stroke fill markers;stop-color:#000000"
           id="rect1"
           width="508"
           height="285.75"
           x="0"
           y="11.249975" /></g></clipPath></defs><metadata
     id="metadata5"><rdf:RDF><cc:Work
         rdf:about=""><dc:format>image/svg+xml</dc:format><dc:type
           rdf:resource="http://purl.org/dc/dcmitype/StillImage" /></cc:Work></rdf:RDF></metadata><path
     style="fill:none;stroke:#ffffff;stroke-width:0.407665px;stroke-linecap:butt;stroke-linejoin:miter;stroke-opacity:0.626761"
     d="m 3.2956935,0.70830404 c 0,0 1.6421011,-0.0551041 1.8955799,0.29756206 0.2534788,0.3526661 0.1432713,0.661249 -0.022041,0.8155403"
     id="path475"
     sodipodi:nodetypes="csc" /><path
     style="fill:none;stroke:#ffffff;stroke-width:0.407665px;stroke-linecap:butt;stroke-linejoin:miter;stroke-opacity:0.626761"
     d="M 3.1193603,0.17930499 3.141402,3.4194245"
     id="path477" /><path
     style="fill:none;stroke:#ffffff;stroke-width:0.407665px;stroke-linecap:butt;stroke-linejoin:miter;stroke-opacity:0.626761"
     d="m 3.2075269,1.5458859 c 0,0 1.5869971,-0.1653074 2.0278299,0.3967494 0.2865414,0.3085829 -0.011016,0.8265611 -0.011016,0.8265611"
     id="path479"
     sodipodi:nodetypes="ccc" /><path
     style="fill:none;stroke:#ffffff;stroke-width:0.407665px;stroke-linecap:butt;stroke-linejoin:miter;stroke-opacity:0.626761"
     d="m 3.2075269,2.4055095 c 0,0 1.5098515,-0.1212289 1.9066008,0.3416448 0.3967497,0.462874 -0.1102076,0.7934985 -0.1102076,0.7934985"
     id="path481"
     sodipodi:nodetypes="csc" /><path
     style="fill:none;stroke:#ffffff;stroke-width:0.407665px;stroke-linecap:butt;stroke-linejoin:miter;stroke-opacity:0.626761"
     d="m 3.085311,0.70989998 c 0,0 -1.6421011,-0.0551041 -1.8955799,0.29756212 -0.2534788,0.3526661 -0.1432713,0.6612488 0.022041,0.8155401"
     id="path475-3"
     sodipodi:nodetypes="csc" /><path
     style="fill:none;stroke:#ffffff;stroke-width:0.407665px;stroke-linecap:butt;stroke-linejoin:miter;stroke-opacity:0.626761"
     d="m 3.1734776,1.5474817 c 0,0 -1.5869971,-0.1653073 -2.0278298,0.3967493 -0.28654139,0.3085831 0.011016,0.8265612 0.011016,0.8265612"
     id="path479-4"
     sodipodi:nodetypes="ccc" /><path
     style="fill:none;stroke:#ffffff;stroke-width:0.407665px;stroke-linecap:butt;stroke-linejoin:miter;stroke-opacity:0.626761"
     d="m 3.1734776,2.4071054 c 0,0 -1.5098515,-0.1212288 -1.9066008,0.3416448 -0.39674963,0.462874 0.1102076,0.7934984 0.1102076,0.7934984"
     id="path481-7"
     sodipodi:nodetypes="csc" /><path
     style="fill:none;stroke:#ffffff;stroke-width:0.407665px;stroke-linecap:butt;stroke-linejoin:miter;stroke-opacity:0.626761"
     d="M 3.1524227,4.411298 C 3.9789839,4.4002814 4.5520665,3.8271948 4.8826906,3.9704653 5.2133154,4.1137351 5.4167786,4.793726 5.0590239,5.3701086 4.6622746,6.0093159 4.3491485,5.754679 4.144296,5.4141922 3.9403487,5.0752094 3.1414021,5.2488796 3.1414021,5.2488796"
     id="path483"
     sodipodi:nodetypes="csssc" /><path
     style="fill:none;stroke:#ffffff;stroke-width:0.407665px;stroke-linecap:butt;stroke-linejoin:miter;stroke-opacity:0.626761"
     d="M 3.2829319,4.4083402 C 2.4563708,4.3973236 1.8832881,3.8242369 1.5526639,3.9675075 1.2220391,4.1107772 1.0185758,4.7907681 1.3763306,5.3671508 1.77308,6.006358 2.0862061,5.7517211 2.2910585,5.4112341 2.4950059,5.0722516 3.2939525,5.2459218 3.2939525,5.2459218"
     id="path483-7"
     sodipodi:nodetypes="csssc" /><rect
     style="display:none;fill:#ffffff;fill-opacity:0.28169;stroke:none;stroke-width:0.606768;stroke-linecap:round;stroke-linejoin:round;stroke-dashoffset:0.8;stroke-opacity:0.626761"
     id="rect2703"
     width="5.8723941"
     height="5.7739739"
     x="0.16451286"
     y="0.25285277"
     ry="0.47022891" /></svg>
